<?xml version="1.0" encoding="UTF-8"?>
<svg width="208" height="74"
     viewBox="0 0 208 74" version="1.1"
     xmlns="http://www.w3.org/2000/svg">
  <g id="foto-/-logosign-copy" stroke="none" stroke-width="1" fill="none" fill-rule="evenodd">
    <polygon fill="#9D1D27" points="0 74 208 74 208 0 0 0"></polygon>
    <g id="znak" transform="translate(12.000000, 12.000000)" fill="#FEFEFE">
      <path
        d="M3.59285714,3.59081633 L46.2316327,3.59081633 L46.2316327,46.2357143 L3.59081633,46.2357143 L3.59285714,3.59081633 Z M49.8214286,0.00102040816 L0.00102040816,2.13162821e-14 L2.13162821e-14,49.8265306 L49.8214286,49.8265306 L49.8214286,0.00102040816 Z"
        id="Fill-2"></path>
      <polygon id="Fill-3" points="8.30357143 16.6084694 41.5178571 16.6084694 41.5178571 8.30438776 8.30357143 8.30438776"></polygon>
      <polygon id="Fill-4" points="8.30357143 41.5217347 16.6066327 41.5217347 16.6066327 33.2176531 8.30357143 33.2176531"></polygon>
      <polygon id="Fill-5" points="8.30357143 29.0645918 29.0321429 29.0645918 29.0321429 20.735 8.30357143 20.735"></polygon>
    </g>
    <g id="txt" transform="translate(73.000000, 19.962300)" fill="#FEFEFE">
      <path
        d="M9.9095,3.1667 L9.9095,13.8967 L12.8935,13.8967 C16.1745,13.8967 16.9265,12.6437 16.9265,8.4747 C16.9265,4.0327 16.4485,3.1667 12.5295,3.1667 L9.9095,3.1667 Z M13.3495,0.3647 C18.4985,0.3647 20.3435,2.5977 20.3435,8.4517 C20.3435,14.0787 18.3845,16.6987 13.3265,16.6987 L6.5385,16.6987 L6.5385,0.3647 L13.3495,0.3647 Z"
        id="Fill-7"></path>
      <polygon id="Fill-6" points="0.0003 16.6977 3.3713 16.6977 3.3713 0.3647 0.0003 0.3647"></polygon>
      <polygon id="Fill-9" points="22.9628 0.365 34.4438 0.365 34.4438 3.167 26.3338 3.167 26.3338 6.994 33.4188 6.994 33.4188 9.796 26.3338 9.796 26.3338 16.698 22.9628 16.698"></polygon>
      <path
        d="M50.163,11.322 C49.935,14.511 48.158,17.063 43.123,17.063 C38.203,17.063 35.72,14.626 35.72,8.612 C35.72,2.734 38.066,-7.10542736e-15 43.146,-7.10542736e-15 C47.156,-7.10542736e-15 49.616,1.709 50.163,5.445 L46.791,5.445 C46.404,3.987 45.926,2.871 43.146,2.871 C40.367,2.871 39.137,4.534 39.137,8.907 C39.137,12.302 40.049,14.193 43.192,14.193 C45.448,14.193 46.518,13.487 46.791,11.322 L50.163,11.322 Z"
        id="Fill-11"></path>
      <polygon id="Fill-13" points="59.1381 0.365 70.6191 0.365 70.6191 3.167 62.5091 3.167 62.5091 6.994 69.5941 6.994 69.5941 9.796 62.5091 9.796 62.5091 16.698 59.1381 16.698"></polygon>
      <polygon id="Fill-15" points="72.8063 16.6977 76.1773 16.6977 76.1773 0.3647 72.8063 0.3647"></polygon>
      <path
        d="M82.7162,3.1667 L82.7162,7.4727 L85.7462,7.4727 C88.4572,7.4727 89.3672,7.1987 89.3672,5.1487 C89.3672,3.5087 88.7982,3.1667 85.9502,3.1667 L82.7162,3.1667 Z M79.3452,0.3647 L86.4292,0.3647 C89.8232,0.3647 92.7842,0.4567 92.7842,5.2627 C92.7842,8.4517 91.4632,9.6367 89.5962,10.0697 L93.8562,16.6987 L89.7552,16.6987 L85.7462,10.2737 L82.7162,10.2737 L82.7162,16.6987 L79.3452,16.6987 L79.3452,0.3647 Z"
        id="Fill-17"></path>
      <path
        d="M98.1156,11.573 C98.2526,13.281 98.5036,14.193 101.7386,14.193 C103.4466,14.193 104.6996,13.942 104.6996,12.279 C104.6996,11.277 104.2436,10.73 102.8086,10.343 L98.8446,9.272 C96.8626,8.748 95.1086,7.791 95.1086,4.807 C95.1086,2.461 96.1796,-7.10542736e-15 101.2366,-7.10542736e-15 C106.0436,-7.10542736e-15 107.5476,2.233 107.6156,5.149 L104.2436,5.149 C104.0846,3.782 104.0156,2.871 101.0996,2.871 C99.3916,2.871 98.5256,3.19 98.5256,4.488 C98.5256,5.673 99.2316,6.014 100.1886,6.265 L103.8346,7.244 C106.1576,7.86 108.1166,8.771 108.1166,12.029 C108.1166,16.63 104.1756,17.063 101.7386,17.063 C96.4076,17.063 94.9496,14.967 94.7446,11.573 L98.1156,11.573 Z"
        id="Fill-18"></path>
      <polygon id="Fill-19" points="113.8343 3.2351 108.9133 3.2351 108.9133 0.3651 122.1043 0.3651 122.1043 3.2351 117.2053 3.2351 117.2053 16.6981 113.8343 16.6981"></polygon>
      <path
        d="M3.371,34.0085 L3.371,38.3145 L6.401,38.3145 C9.477,38.3145 10.16,38.0865 10.16,36.2185 C10.16,34.2595 9.522,34.0085 7.062,34.0085 L3.371,34.0085 Z M3.371,27.5845 L3.371,31.2065 L7.153,31.2065 C9.181,31.2065 9.682,30.9565 9.682,29.2705 C9.682,27.9035 9.363,27.5845 6.515,27.5845 L3.371,27.5845 Z M7.973,24.7825 C11.185,24.7825 12.939,25.9215 12.939,29.0195 C12.939,31.5485 11.777,32.0725 11.072,32.3685 C13.076,33.1435 13.577,34.6925 13.577,36.4005 C13.577,39.0885 12.347,41.1155 7.836,41.1155 L0,41.1155 L0,24.7825 L7.973,24.7825 Z"
        id="Fill-20"></path>
      <path
        d="M22.8939,35.5808 L20.6839,35.9448 C19.4769,36.1278 18.6109,36.3778 18.6109,37.6538 C18.6109,38.5648 19.0669,39.0658 20.4789,39.0658 C22.4149,39.0658 22.8939,38.0188 22.8939,36.5378 L22.8939,35.5808 Z M15.8099,32.7558 C15.9689,29.6578 17.7449,28.8148 20.9799,28.8148 C24.3059,28.8148 26.0609,29.7038 26.0609,32.3228 L26.0609,41.1158 L23.0309,41.1158 L23.0309,40.2048 C22.4149,40.8428 21.2529,41.4128 19.3399,41.4128 C16.4699,41.4128 15.4449,40.1368 15.4449,38.0868 C15.4449,35.4208 17.1759,34.4188 18.9299,34.1448 L22.8939,33.5298 L22.8939,32.8018 C22.8939,31.6848 22.3249,31.3658 20.8439,31.3658 C19.2709,31.3658 18.9529,31.7308 18.7929,32.7558 L15.8099,32.7558 Z"
        id="Fill-21"></path>
      <path
        d="M36.5848,34.2136 C36.5848,32.3686 36.5628,31.4116 34.5348,31.4116 C32.2788,31.4116 32.0288,32.5966 32.0288,35.4206 L32.0288,41.1156 L28.8618,41.1156 L28.8618,29.1106 L31.8698,29.1106 L31.8698,30.6596 C32.7348,29.4986 33.6688,28.8146 35.8788,28.8146 C38.9548,28.8146 39.7518,30.1356 39.7518,33.7806 L39.7518,41.1156 L36.5848,41.1156 L36.5848,34.2136 Z"
        id="Fill-22"></path>
      <polygon id="Fill-23" points="42.805 24.7824 45.971 24.7824 45.971 33.5534 49.867 29.1114 53.762 29.1114 49.571 33.6664 53.921 41.1154 50.254 41.1154 47.338 35.8994 45.971 37.3124 45.971 41.1154 42.805 41.1154"></polygon>
    </g>
  </g>
</svg>
